HIERARCHY
ROOT Hips
{
	OFFSET 0.000000 0.000000 0.000000
	CHANNELS 6 Xposition Yposition Zposition Yrotation Xrotation Zrotation
	JOINT Chest
	{
		OFFSET 0.000000 -0.009281 11.569106
		CHANNELS 3 Yrotation Xrotation Zrotation
		JOINT Chest2
		{
			OFFSET -0.000000 0.016865 9.269641
			CHANNELS 3 Yrotation Xrotation Zrotation
			JOINT Chest3
			{
				OFFSET -0.000000 0.000001 8.374491
				CHANNELS 3 Yrotation Xrotation Zrotation
				JOINT Chest4
				{
					OFFSET -0.000000 0.000001 8.374493
					CHANNELS 3 Yrotation Xrotation Zrotation
					JOINT Neck
					{
						OFFSET -0.000000 0.000002 12.152554
						CHANNELS 3 Yrotation Xrotation Zrotation
						JOINT Head
						{
							OFFSET -0.000000 0.040101 7.802319
							CHANNELS 3 Yrotation Xrotation Zrotation
							End Site
							{
								OFFSET -0.000000 0.020947 14.853096
							}
						}
					}
					JOINT RightCollar
					{
						OFFSET 2.894404 0.000001 6.791374
						CHANNELS 3 Yrotation Xrotation Zrotation
						JOINT RightShoulder
						{
							OFFSET 13.574684 0.000001 0.000000
							CHANNELS 3 Yrotation Xrotation Zrotation
							JOINT RightElbow
							{
								OFFSET 23.923903 0.000002 0.000000
								CHANNELS 3 Yrotation Xrotation Zrotation
								JOINT RightWrist
								{
									OFFSET 19.846718 0.012767 0.000000
									CHANNELS 3 Yrotation Xrotation Zrotation
									End Site
									{
										OFFSET 14.973145 0.000001 0.000000
									}
								}
							}
						}
					}
					JOINT LeftCollar
					{
						OFFSET -2.894404 0.000001 6.791374
						CHANNELS 3 Yrotation Xrotation Zrotation
						JOINT LeftShoulder
						{
							OFFSET -13.574684 -0.000001 0.000000
							CHANNELS 3 Yrotation Xrotation Zrotation
							JOINT LeftElbow
							{
								OFFSET -23.923903 -0.000002 0.000000
								CHANNELS 3 Yrotation Xrotation Zrotation
								JOINT LeftWrist
								{
									OFFSET -19.846718 0.012763 0.000000
									CHANNELS 3 Yrotation Xrotation Zrotation
									End Site
									{
										OFFSET -14.973145 -0.000001 0.000000
									}
								}
							}
						}
					}
				}
			}
		}
	}
	JOINT RightHip
	{
		OFFSET 9.469263 0.004643 0.045487
		CHANNELS 3 Yrotation Xrotation Zrotation
		JOINT RightKnee
		{
			OFFSET 0.000000 0.002661 -40.478676
			CHANNELS 3 Yrotation Xrotation Zrotation
			JOINT RightAnkle
			{
				OFFSET 0.000000 0.049106 -35.224068
				CHANNELS 3 Yrotation Xrotation Zrotation
				JOINT RightToe
				{
					OFFSET -0.000001 12.539529 -6.151390
					CHANNELS 3 Yrotation Xrotation Zrotation
					End Site
					{
						OFFSET -0.000001 5.044994 -1.291870
					}
				}
			}
		}
	}
	JOINT LeftHip
	{
		OFFSET -9.469263 0.004641 0.045487
		CHANNELS 3 Yrotation Xrotation Zrotation
		JOINT LeftKnee
		{
			OFFSET 0.000000 0.002661 -40.478676
			CHANNELS 3 Yrotation Xrotation Zrotation
			JOINT LeftAnkle
			{
				OFFSET 0.000000 0.049106 -35.224068
				CHANNELS 3 Yrotation Xrotation Zrotation
				JOINT LeftToe
				{
					OFFSET -0.000001 12.539529 -6.151390
					CHANNELS 3 Yrotation Xrotation Zrotation
					End Site
					{
						OFFSET -0.000001 5.044994 -1.291870
					}
				}
			}
		}
	}
}
MOTION
Frames: 16
Frame Time: 0.016667
-9.552427 -49.734463 83.210037 -2.355198 0.503477 -115.126691 -2.198720 -3.532978 1.734538 -0.837371 -1.652590 0.918104 -0.837371 -1.652590 0.918107 -0.625503 -1.240706 0.686269 1.091318 -12.556942 -3.403681 0.653531 12.840745 -6.026032 10.582648 6.235889 -1.424748 43.852280 -15.222011 -16.016341 -30.470075 -60.791265 87.218394 -45.943991 41.848057 50.742104 -7.964987 5.753012 -6.425917 -40.650363 -8.662536 21.127278 -4.750077 -65.164396 -59.162388 32.368724 18.533290 -74.602318 -1.649742 4.310786 10.530772 -2.186619 -16.609726 1.918384 10.390856 10.586956 10.489890 -3.459614 -1.582128 0.037562 2.410718 -0.412319 -10.556052 2.569710 -2.888246 -6.044209 -4.742067 -2.693520 -9.648610 -1.803673 2.629461 0.173508 
-9.734916 -50.086788 83.235214 -2.345389 0.451376 -115.222655 -2.164751 -3.520929 1.706635 -0.808075 -1.660088 0.923406 -0.808075 -1.660089 0.923408 -0.603506 -1.246294 0.690311 1.086684 -12.601307 -3.379161 0.656823 12.758898 -5.979999 10.602976 6.348642 -1.427849 43.754759 -15.374443 -15.927919 -30.504489 -60.889559 87.293294 -45.943121 41.959020 50.760706 -8.010036 5.779579 -6.403912 -40.772835 -8.518825 21.278915 -4.800860 -65.118293 -58.995616 32.281581 18.436120 -74.718759 -1.683065 4.204572 9.603066 -1.931016 -16.397537 1.469571 11.513009 11.001508 11.834695 -3.665118 -1.949754 0.064046 2.673959 -0.707092 -9.169117 2.596403 -2.451765 -6.761144 -4.072786 -2.497829 -9.729894 -2.089710 1.956491 0.253986 
-9.874814 -50.439655 83.265427 -2.358863 0.353376 -115.424528 -2.125902 -3.546503 1.757109 -0.780916 -1.666351 0.947374 -0.780916 -1.666352 0.947372 -0.583063 -1.250980 0.708353 1.082194 -12.641323 -3.357176 0.659117 12.685059 -5.938893 10.604725 6.223779 -1.432615 43.729074 -15.586594 -15.705298 -30.383864 -60.855257 87.252006 -45.986164 42.075984 50.730964 -8.032793 5.752752 -6.346571 -41.055338 -8.474824 21.390728 -4.301643 -64.852551 -59.201068 32.119221 18.526849 -74.912367 -1.815431 4.142599 8.366435 -1.583937 -16.392328 0.522516 12.836533 11.797985 13.639370 -3.792986 -2.591717 0.064006 2.804419 -0.863811 -8.024462 2.534112 -2.606245 -7.002374 -3.135668 -2.100259 -9.206462 -2.355379 1.474539 0.249912 
-9.951757 -50.771099 83.307968 -2.537364 0.239059 -115.827905 -2.163802 -3.748726 2.001808 -0.755506 -1.677345 0.987797 -0.755506 -1.677346 0.987797 -0.563879 -1.259236 0.738721 1.080670 -12.643717 -3.342954 0.662237 12.680935 -5.912390 10.593921 6.076789 -1.424386 43.736386 -15.831390 -15.511590 -30.135266 -60.760325 87.136022 -46.056990 42.147875 50.657064 -8.066664 5.795192 -6.264750 -41.303332 -8.486367 21.481307 -3.708912 -64.565498 -59.477745 31.897837 18.645284 -75.041758 -2.052169 3.873035 6.925723 -1.334033 -16.423369 -0.343872 14.089200 12.729964 15.126801 -3.707396 -3.169497 0.026343 2.604380 -1.006856 -7.077468 2.447785 -3.398748 -6.249723 -1.736789 -1.500586 -8.184899 -2.729285 1.119694 0.079463 
-10.053365 -51.084587 83.398636 -2.572559 0.169382 -116.113120 -2.157344 -3.831625 2.130337 -0.738012 -1.697179 1.030593 -0.738012 -1.697179 1.030596 -0.550607 -1.274135 0.770841 1.083369 -12.607658 -3.330548 0.671043 12.748309 -5.888650 10.612551 6.098239 -1.395720 43.698403 -16.032366 -15.473590 -29.859463 -60.772687 87.057304 -46.142723 42.169684 50.555814 -8.095398 5.909480 -6.198883 -41.395311 -8.406829 21.582197 -3.510506 -64.414387 -59.477239 31.702593 18.543882 -75.066941 -2.358599 3.672247 5.187141 -1.010740 -16.372681 -0.808381 14.350356 13.707486 15.137436 -2.992405 -3.417521 -0.028723 2.336020 -0.881668 -6.236425 2.370392 -4.537543 -4.461197 -0.272596 -0.878981 -7.267621 -3.032497 0.864029 0.003335 
-10.194841 -51.411476 83.525475 -2.576867 0.003042 -116.416859 -2.029055 -3.909412 2.299551 -0.728079 -1.737609 1.069279 -0.728079 -1.737610 1.069278 -0.542978 -1.304487 0.799828 1.086459 -12.539396 -3.318529 0.679122 12.875456 -5.866378 10.597295 6.106314 -1.417338 43.647323 -16.049898 -15.444350 -29.548006 -60.901955 86.984146 -46.229213 42.136011 50.444799 -8.075534 5.990890 -6.176699 -41.347602 -8.183028 21.647897 -3.693281 -64.398698 -59.260115 31.547455 18.225248 -75.004329 -2.697215 3.402142 3.566055 -0.155154 -16.514108 -2.127557 13.037633 14.769010 13.794382 -1.489641 -3.265128 -0.131264 2.124787 -0.741932 -4.976173 2.213769 -5.693631 -1.997659 1.258480 -0.466798 -6.397108 -4.489053 2.069534 -0.111647 
-10.267844 -51.718491 83.667877 -2.697550 -0.209202 -116.789227 -1.907293 -4.072587 2.555934 -0.717389 -1.792088 1.108646 -0.717390 -1.792089 1.108647 -0.534748 -1.345374 0.829313 1.080658 -12.463856 -3.305453 0.670433 13.015773 -5.846008 10.549570 6.022522 -1.490648 43.661865 -15.931633 -15.423503 -29.222049 -61.022474 86.858457 -46.267787 42.062883 50.368622 -7.997590 5.934380 -6.205550 -41.240969 -7.906785 21.635809 -3.947247 -64.413841 -59.091491 31.513755 17.843360 -74.900483 -3.204101 3.019451 1.818565 1.166779 -16.726809 -5.643899 10.540609 15.150589 12.463097 0.630869 -2.634071 -0.237554 1.903902 -0.850286 -3.054166 1.898924 -6.642167 0.791468 2.737930 -0.249751 -5.496374 -5.752542 3.127236 -0.251007 
-10.118468 -52.092361 83.799103 -2.841962 -0.366033 -117.099755 -1.834191 -4.240092 2.756917 -0.699358 -1.834340 1.150284 -0.699359 -1.834341 1.150288 -0.521023 -1.377080 0.860543 1.055431 -12.402475 -3.287760 0.627262 13.129165 -5.824624 10.500765 5.905282 -1.532518 43.756757 -15.780167 -15.491453 -28.968267 -61.037965 86.722434 -46.281054 42.024706 50.329215 -7.924967 5.817311 -6.261484 -41.164345 -7.767700 21.590474 -3.995952 -64.345429 -59.158475 31.536650 17.574066 -74.703268 -3.989785 2.595471 -0.948948 2.395809 -16.932939 -10.607006 7.744714 14.712946 12.031982 2.957494 -1.631136 -0.252086 1.645205 -1.342561 -0.359094 1.502485 -6.949976 3.545384 3.984700 -0.314093 -4.715693 -6.699563 4.063440 -0.339387 
-9.678759 -52.563808 83.913391 -2.884396 -0.421216 -117.355054 -1.790546 -4.318785 2.895702 -0.677625 -1.833810 1.187174 -0.677625 -1.833810 1.187172 -0.504615 -1.376683 0.888274 1.012516 -12.382781 -3.259265 0.556631 13.164775 -5.788939 10.484725 5.798745 -1.508347 43.881326 -15.660037 -15.633386 -28.793776 -60.992087 86.587100 -46.283356 42.063952 50.318974 -7.894683 5.720219 -6.298313 -41.148181 -7.782926 21.583302 -4.020537 -64.170727 -59.215616 31.495710 17.372345 -74.494005 -5.037179 2.030310 -5.135932 3.341187 -16.959377 -14.702868 5.043473 13.926342 11.587419 4.909177 -0.596092 -0.178134 1.353743 -2.141265 2.995916 1.041922 -6.648344 6.020729 4.998358 -0.421929 -3.990544 -7.379208 4.802324 -0.383171 
-8.988609 -53.098057 84.010216 -2.757666 -0.421200 -117.551968 -1.701533 -4.255958 2.955228 -0.652843 -1.789282 1.211193 -0.652843 -1.789283 1.211190 -0.486047 -1.343264 0.906412 0.957776 -12.422534 -3.213565 0.473156 13.090058 -5.723737 10.498643 5.820248 -1.465095 43.984335 -15.658909 -15.837329 -28.644300 -60.987476 86.440484 -46.248881 42.148541 50.343026 -7.940328 5.750660 -6.292532 -41.131317 -7.812032 21.689411 -4.238210 -64.089420 -59.019849 31.338708 17.220519 -74.345236 -6.012476 1.312466 -10.347931 3.845811 -16.746946 -16.479459 2.591575 12.854455 10.322615 6.160917 0.403311 -0.058912 1.049911 -3.028241 6.582666 0.568096 -6.029933 7.986182 5.790849 -0.500859 -2.931304 -7.895645 5.365958 -0.411277 
-8.180921 -53.602489 84.081459 -2.506975 -0.422176 -117.672753 -1.551612 -4.075639 2.931906 -0.622659 -1.724789 1.219569 -0.622659 -1.724788 1.219570 -0.463519 -1.294841 0.912853 0.891558 -12.507107 -3.157388 0.374055 12.931998 -5.642055 10.519394 5.873089 -1.417332 44.018944 -15.639984 -16.018242 -28.564592 -61.099758 86.378465 -46.177806 42.267325 50.398241 -8.027159 5.875498 -6.228768 -41.085429 -7.763627 21.837771 -4.576656 -64.201422 -58.645712 31.118393 17.068586 -74.221904 -6.623189 0.562963 -15.297838 4.081451 -16.324540 -16.442507 0.621629 11.437663 8.361460 6.547195 1.362966 0.069908 0.700220 -3.791766 9.710102 0.221768 -5.449821 9.655504 6.333936 -0.377122 -1.499337 -8.339838 5.592126 -0.447917 
-7.427069 -54.046562 84.112785 -2.261580 -0.498732 -117.741547 -1.376845 -3.900391 2.865747 -0.583017 -1.685871 1.222572 -0.583017 -1.685870 1.222572 -0.433860 -1.265577 0.915253 0.827999 -12.575435 -3.105356 0.277601 12.804089 -5.567605 10.567244 5.990507 -1.341860 43.974974 -15.615645 -16.218493 -28.599433 -61.241737 86.482728 -46.129892 42.430129 50.451438 -8.081592 6.029719 -6.153562 -41.087986 -7.684788 21.964667 -4.854180 -64.361364 -58.285180 30.911616 16.857416 -74.094411 -6.701063 -0.121690 -18.670305 4.126536 -15.737692 -15.869893 0.083886 10.170547 6.736240 5.634265 1.883435 0.128528 0.355179 -4.444063 12.073132 0.146467 -4.949721 10.973447 6.592182 -0.020089 0.194189 -6.844855 4.284150 -0.298792 
-6.982316 -54.459282 84.102074 -1.946942 -0.738202 -117.745563 -1.099879 -3.741264 2.749996 -0.527823 -1.682457 1.225767 -0.527823 -1.682457 1.225768 -0.392465 -1.262909 0.917804 0.776246 -12.577346 -3.058827 0.198588 12.799789 -5.500603 10.623565 6.106369 -1.282732 43.884157 -15.673495 -16.371671 -28.714870 -61.274249 86.702893 -46.131371 42.668899 50.507377 -8.076775 6.068936 -6.133757 -41.188103 -7.618428 22.013295 -4.978713 -64.364691 -58.069940 30.767417 16.510099 -73.962800 -6.037265 -0.541902 -19.747253 3.732490 -15.027185 -15.102119 0.007788 9.029012 5.057814 4.565084 2.220706 0.123898 0.347926 -4.945970 13.350690 0.510915 -4.328745 11.406130 6.373964 0.154212 1.857689 -5.586772 3.209436 -0.204782 
-6.949888 -54.915539 84.060646 -1.740830 -1.091509 -117.789672 -0.810401 -3.707391 2.711927 -0.477261 -1.741096 1.220880 -0.477261 -1.741097 1.220882 -0.354442 -1.306783 0.914230 0.751508 -12.514350 -3.016891 0.166434 12.916922 -5.432943 10.672550 6.094688 -1.230815 43.743615 -15.743745 -16.358291 -28.824962 -61.164125 86.909164 -46.242833 42.945798 50.506763 -8.057208 6.041217 -6.138087 -41.358704 -7.651744 21.946233 -4.870193 -64.202801 -58.055044 30.712103 16.179132 -73.816286 -5.125856 -0.660627 -18.192323 3.789397 -14.690735 -14.025144 -0.525810 8.525247 1.479364 3.705119 2.206994 0.131128 0.803801 -5.092884 13.182815 0.750144 -4.442626 11.416573 5.450503 0.650726 3.763856 -4.111123 2.250326 -0.117634 
-7.298279 -55.381340 83.776108 -1.704639 -0.840590 -117.808961 -1.098768 -3.648679 2.715704 -0.476185 -1.790070 1.199303 -0.476186 -1.790072 1.199306 -0.353597 -1.343494 0.898010 0.785864 -12.400583 -2.986687 0.239965 13.130290 -5.364231 10.631297 5.878448 -1.302276 43.655441 -15.736696 -16.116333 -28.817709 -60.924454 86.916001 -46.327718 42.946570 50.462022 -7.945927 5.807502 -6.184054 -41.540712 -7.669778 21.684437 -4.721647 -63.972528 -58.187208 30.640345 16.070559 -73.760927 -5.187622 -0.047278 -14.555929 4.951010 -14.870507 -15.771421 -1.416337 8.045870 -1.096059 3.113632 2.305112 0.224011 1.183790 -4.830986 11.866319 0.354082 -4.855695 11.344655 4.360253 1.351745 5.946740 -2.610052 1.275576 -0.098306 
-7.880279 -55.539059 83.717354 -1.696323 -0.664916 -117.743527 -1.268573 -3.688850 2.684769 -0.538393 -1.814611 1.163002 -0.538393 -1.814611 1.163003 -0.400309 -1.361990 0.870582 0.872293 -12.318416 -2.965383 0.410508 13.286655 -5.289401 10.568271 5.735974 -1.436686 43.705301 -15.657374 -15.885005 -28.752860 -60.728742 86.693166 -46.187023 42.608141 50.490128 -7.878386 5.567207 -6.379151 -41.546791 -7.687930 21.534699 -4.730526 -63.784077 -58.315943 30.766034 16.248714 -73.971659 -5.004818 1.030566 -10.504822 5.937963 -16.089130 -19.503055 -1.790013 8.668105 -1.846782 2.613896 2.011218 0.149192 1.611365 -4.245162 10.287296 -0.110455 -5.234755 12.097992 3.550158 1.512594 6.916965 -1.464269 0.741090 -0.040126 
